<svg xmlns="http://www.w3.org/2000/svg" width="48" height="48"><path d="M14.718 13.488c-.391.267-.992.268-.992.268v-1.127s.6 0 .992.267zM14.084 28.062c-.39.267-.992.267-.992.267v-1.127s.601 0 .992.268zM30.178 13.405c.39.267.992.268.992.268v-1.127s-.601 0-.992.268zM31.323 28.051c.391.267.992.268.992.268v-1.127s-.6 0-.992.268z" style="fill:#a4a4a4;fill-opacity:1;stroke:none;stroke-width:.161716px;stroke-linecap:butt;stroke-linejoin:miter;stroke-opacity:1" transform="matrix(1 0 0 -1 1.292 46.795)"/><path d="m14.876 22.922-2.657-5.992 3.614-5.835 6.666-1.634 6.666 1.634 3.614 5.835-1.927 5.915z" style="fill:#c9c9c9;fill-opacity:1;stroke:none;stroke-width:2.53941;stroke-opacity:1" transform="matrix(1 0 0 -1 1.292 46.795)"/><path d="M13.831 23.282h17.821v5.214H13.831z" style="fill:#c9c9c9;fill-opacity:1;stroke:none;stroke-width:4.78463;stroke-opacity:1" transform="matrix(1 0 0 -1 1.292 46.795)"/><g style="fill:#c9c9c9;fill-opacity:1;stroke:#848484;stroke-opacity:1"><path d="m15.192 26.355-3.731 9.334M9.554 35.63l4.061-.032" style="fill:#c9c9c9;fill-opacity:1;stroke:#848484;stroke-width:1px;stroke-linecap:butt;stroke-linejoin:miter;stroke-opacity:1" transform="matrix(1 0 0 -1 1.355 46.795)"/></g><g style="fill:#c9c9c9;fill-opacity:1;stroke:#848484;stroke-opacity:1"><path d="m15.192 26.355-3.731 9.334M9.554 35.63l4.061-.032" style="fill:#c9c9c9;fill-opacity:1;stroke:#848484;stroke-width:1px;stroke-linecap:butt;stroke-linejoin:miter;stroke-opacity:1" transform="matrix(.65929 0 0 -.65929 8.63 36.073)"/></g><g style="fill:#c9c9c9;fill-opacity:1;stroke:#848484;stroke-opacity:1"><path d="m15.192 26.355-3.731 9.334M9.554 35.63l4.061-.032" style="fill:#c9c9c9;fill-opacity:1;stroke:#848484;stroke-width:1px;stroke-linecap:butt;stroke-linejoin:miter;stroke-opacity:1" transform="matrix(-.65929 0 0 -.65929 39.164 36.082)"/></g><g style="fill:#c9c9c9;fill-opacity:1;stroke:#848484;stroke-opacity:1"><path d="m15.192 26.355-3.731 9.334M9.554 35.63l4.061-.032" style="fill:#c9c9c9;fill-opacity:1;stroke:#848484;stroke-width:1px;stroke-linecap:butt;stroke-linejoin:miter;stroke-opacity:1" transform="rotate(180 23.323 23.441)"/></g><path d="M24.083 28.68c.98 1.437.983 3.644.983 3.644h-4.14s.003-2.207.983-3.644z" style="fill:#c9c9c9;fill-opacity:1;stroke:none;stroke-width:.59392px;stroke-linecap:butt;stroke-linejoin:miter;stroke-opacity:1" transform="matrix(1 0 0 -1 1.292 46.795)"/><path d="m16.566 11.827-3.221 5.064 5.197-.137zM13.364 17.369l5.098-.096-.221 4.92-2.71.055zM17.001 11.696l1.96 4.9 3.27-.084-.04-6.128zM18.948 22.17h3.234l.018-5.195-3.292.186c-.027 1.694.066 3.315.04 5.008zM28.78 11.81l3.222 5.065-5.198-.138zM31.982 17.352l-5.098-.096.221 4.92 2.71.055zM28.345 11.68l-1.96 4.9-3.27-.084.04-6.129zM26.398 22.153h-3.233l-.02-5.195 3.293.187c.027 1.693-.066 3.314-.04 5.008z" style="fill:#bebebe;fill-opacity:1;stroke:none;stroke-width:1px;stroke-linecap:butt;stroke-linejoin:miter;stroke-opacity:1" transform="matrix(1 0 0 -1 1.292 46.795)"/><path d="M13.831 23.282h6.165v5.168h-6.165zM25.675 23.282h5.977v5.215h-5.977z" style="fill:#bebebe;fill-opacity:1;stroke:none;stroke-width:4.95496;stroke-opacity:1" transform="matrix(1 0 0 -1 1.292 46.795)"/><path d="M23.455 28.688c.525.549.789 3.657.789 3.657l.822-.021s-.127-2.547-.983-3.644z" style="fill:#bebebe;fill-opacity:1;stroke:none;stroke-width:1px;stroke-linecap:butt;stroke-linejoin:miter;stroke-opacity:1" transform="matrix(1 0 0 -1 1.292 46.795)"/></svg>